<svg width="1600" height="400" viewBox="0 0 1600 400" fill="none" xmlns="http://www.w3.org/2000/svg">
  <defs>
    <linearGradient id="bg" x1="120" y1="24" x2="1496" y2="404" gradientUnits="userSpaceOnUse">
      <stop stop-color="#102730"/>
      <stop offset="0.5" stop-color="#09151B"/>
      <stop offset="1" stop-color="#160C10"/>
    </linearGradient>
    <radialGradient id="aquaGlow" cx="0" cy="0" r="1" gradientUnits="userSpaceOnUse" gradientTransform="translate(336 132) rotate(23.76) scale(344 178)">
      <stop stop-color="#71F0FF" stop-opacity="0.32"/>
      <stop offset="1" stop-color="#71F0FF" stop-opacity="0"/>
    </radialGradient>
    <radialGradient id="coralGlow" cx="0" cy="0" r="1" gradientUnits="userSpaceOnUse" gradientTransform="translate(1180 298) rotate(165.92) scale(344 180)">
      <stop stop-color="#FF7A5C" stop-opacity="0.28"/>
      <stop offset="1" stop-color="#FF7A5C" stop-opacity="0"/>
    </radialGradient>
    <linearGradient id="line" x1="180" y1="88" x2="1360" y2="338" gradientUnits="userSpaceOnUse">
      <stop stop-color="#71F0FF"/>
      <stop offset="0.5" stop-color="#D4FF45"/>
      <stop offset="1" stop-color="#FF7A5C"/>
    </linearGradient>
  </defs>

  <rect width="1600" height="400" rx="36" fill="#060D12"/>
  <rect x="8" y="8" width="1584" height="384" rx="28" fill="url(#bg)" stroke="#FFFFFF" stroke-opacity="0.08"/>
  <rect x="34" y="54" width="1532" height="292" rx="28" fill="url(#aquaGlow)"/>
  <rect x="34" y="54" width="1532" height="292" rx="28" fill="url(#coralGlow)"/>

  <path d="M102 92H776L714 310H40L102 92Z" fill="#0D202A" opacity="0.96"/>
  <path d="M118 110H735L682 292H65L118 110Z" fill="#FFFFFF" fill-opacity="0.03"/>
  <path d="M932 58L1246 58L1562 344L1248 344L932 58Z" fill="#FFFFFF" fill-opacity="0.04"/>
  <path d="M1040 42L1188 42L1506 358L1358 358L1040 42Z" fill="#FFFFFF" fill-opacity="0.05"/>

  <circle cx="1314" cy="200" r="98" fill="#0B1820" stroke="url(#line)" stroke-width="8"/>
  <circle cx="1314" cy="200" r="76" fill="#091219"/>
  <text x="1314" y="175" text-anchor="middle" fill="#EEF7FF" font-family="Arial Black, Arial, sans-serif" font-size="34" letter-spacing="4">TRUTH</text>
  <rect x="1264" y="188" width="100" height="28" rx="14" fill="#FFD166"/>
  <text x="1314" y="208" text-anchor="middle" fill="#10232B" font-family="Arial Black, Arial, sans-serif" font-size="14" letter-spacing="3">OR</text>
  <text x="1314" y="248" text-anchor="middle" fill="#FF7A5C" font-family="Arial Black, Arial, sans-serif" font-size="36" letter-spacing="4">DARE</text>

  <text x="108" y="154" fill="#71F0FF" font-family="Arial Black, Arial, sans-serif" font-size="88" letter-spacing="5">TRUTH</text>
  <rect x="706" y="100" width="124" height="52" rx="26" fill="#FFD166"/>
  <text x="768" y="135" text-anchor="middle" fill="#10232B" font-family="Arial Black, Arial, sans-serif" font-size="30" letter-spacing="4">OR</text>
  <text x="850" y="154" fill="#FF7A5C" font-family="Arial Black, Arial, sans-serif" font-size="88" letter-spacing="5">DARE</text>

  <text x="112" y="230" fill="#F7F3E8" font-family="Arial Black, Arial, sans-serif" font-size="36" letter-spacing="3">SAFE PLAY. BIG MOVES. MAX UPGRADE.</text>
  <text x="112" y="276" fill="#A9BBC0" font-family="Arial, Helvetica, sans-serif" font-size="24" letter-spacing="4">ORIGINAL DISCORD PARTY BOT BRANDING // CLEAN CHAOS // NO COPY LOOK</text>

  <rect x="110" y="304" width="700" height="8" rx="4" fill="url(#line)"/>
</svg>
